<?xml version="1.0" encoding="utf-8"?>
<!-- Generator: Adobe Illustrator 21.1.0, SVG Export Plug-In . SVG Version: 6.00 Build 0)  -->
<svg version="1.1" id="Layer_4" xmlns="http://www.w3.org/2000/svg" xmlns:xlink="http://www.w3.org/1999/xlink" x="0px" y="0px"
	 viewBox="0 0 34.3 28.1" style="enable-background:new 0 0 34.3 28.1;" xml:space="preserve">
<style type="text/css">
	.st0{fill-rule:evenodd;clip-rule:evenodd;fill:#E84A45;}
</style>
<path class="st0" d="M8.9,0.4c2.5-0.1,4.9,0.8,7,2.3c-0.7,0.7-1.2,1.4-1.7,2.2C12.7,3.7,11,3,8.9,3.1c-1.6,0-3.1,0.6-4.2,1.7
	C1.6,7.8,3,12.2,5.3,15.3c2.9,3.8,7.5,7.2,11.8,9.5c4.3-2.4,8.9-5.7,11.8-9.5c2.4-3.1,3.7-7.5,0.6-10.5c-1.1-1.1-2.6-1.7-4.2-1.7
	c-4.1-0.1-7.6,1.8-10.7,6.7c0,0.1-0.1,0.1-0.2,0.1c-0.1,0-0.1-0.1-0.1-0.2c0.7-3.3,3.4-6.9,6.4-8.3c1.5-0.6,3.1-1,4.7-0.9
	c2.4,0.1,4.5,1,6,2.5c3.9,3.8,3.2,9.5-0.4,14.1c-3.2,4.1-8.4,8.1-13.9,10.9C11.7,25.1,6.4,21,3.2,17C-0.4,12.3-1.1,6.7,2.8,2.9
	C4.3,1.4,6.4,0.4,8.9,0.4z"/>
</svg>
