<?xml version="1.0" encoding="utf-8"?>
<!-- Generator: Adobe Illustrator 21.1.0, SVG Export Plug-In . SVG Version: 6.00 Build 0)  -->
<svg version="1.1" xmlns="http://www.w3.org/2000/svg" xmlns:xlink="http://www.w3.org/1999/xlink" x="0px" y="0px"
	 viewBox="0 0 44.5 41.5" style="enable-background:new 0 0 44.5 41.5;" xml:space="preserve">
<style type="text/css">
	.st0{fill-rule:evenodd;clip-rule:evenodd;fill:#A8A8A8;}
	.st1{fill-rule:evenodd;clip-rule:evenodd;fill:#E84A45;}
</style>
<g id="Layer_3">
	<path class="st0" d="M34.9,16.6c-0.2-0.7-0.5-1.4-1.1-2c-0.8-0.8-1.9-1.2-3-1.2c-4.2-0.1-7,2.5-9.1,5.8c-0.5,0.8-1.5,1.1-2.4,0.8
		c-0.3-0.1-0.5-0.3-0.7-0.5v-2.2c0.2,0.2,0.4,0.4,0.7,0.5c0.9,0.4,1.9,0,2.4-0.8c2.2-3.4,5-6,9.1-5.8c1.1,0,2.2,0.4,3,1.2
		C35,13.6,35.2,15.1,34.9,16.6L34.9,16.6z M18.5,36.2c1.1,0.7,2.3,1.3,3.4,1.9l0.8,0.4l0.8-0.4c5.3-2.7,10.9-6.7,14.5-11.4
		c2.3-3,3.7-6.7,3.3-10.1c-0.3,2.8-1.5,5.6-3.3,7.9c-3.6,4.7-9.3,8.7-14.5,11.4l-0.8,0.4l-0.8-0.4c-1.1-0.6-2.2-1.2-3.4-1.9V36.2
		L18.5,36.2z M18.5,14c0.1-0.4,0.3-0.8,0.5-1.2l-0.3-0.2l-0.1-0.1V14z M18.5,19.5c-0.4-0.5-0.6-1.1-0.4-1.7c0.1-0.3,0.1-0.6,0.2-0.9
		c0.1,0.1,0.1,0.2,0.2,0.3V19.5L18.5,19.5z M18.5,12.5V14c-0.1,0.2-0.1,0.4-0.2,0.6c-1.1-0.8-2.3-1.2-3.8-1.2c-1.1,0-2.2,0.4-3,1.2
		c-0.6,0.6-1,1.3-1.1,2c-0.3-1.5-0.1-3,1.1-4.2c0.8-0.8,1.9-1.2,3-1.2C16,11.2,17.3,11.7,18.5,12.5L18.5,12.5z M18.5,33.9
		c-4.2-2.5-8.3-5.9-11.1-9.5c-1.8-2.4-3-5.1-3.3-7.9C3.7,20,5,23.6,7.3,26.6c2.8,3.7,7,7,11.1,9.5V33.9z"/>
</g>
<g id="Layer_4">
	<path class="st1" d="M14.4,6.7c2.5-0.1,4.9,0.8,7,2.3c-0.7,0.7-1.2,1.4-1.7,2.2c-1.5-1.1-3.1-1.8-5.2-1.8c-1.6,0-3.1,0.6-4.2,1.7
		c-3.1,3.1-1.7,7.5,0.6,10.5c2.9,3.8,7.5,7.2,11.8,9.5c4.3-2.4,8.9-5.7,11.8-9.5c2.4-3.1,3.7-7.5,0.6-10.5c-1.1-1.1-2.6-1.7-4.2-1.7
		c-4.1-0.1-7.6,1.8-10.7,6.7c0,0.1-0.1,0.1-0.2,0.1c-0.1,0-0.1-0.1-0.1-0.2c0.7-3.3,3.4-6.9,6.4-8.3c1.5-0.6,3.1-1,4.7-0.9
		c2.4,0.1,4.5,1,6,2.5c3.9,3.8,3.2,9.5-0.4,14.1c-3.2,4.1-8.4,8.1-13.9,10.9c-5.5-2.8-10.7-6.8-13.9-10.9C5.2,18.7,4.5,13,8.3,9.2
		C9.9,7.7,12,6.8,14.4,6.7z"/>
</g>
</svg>
