<?xml version="1.0" encoding="utf-8"?>
<!-- Generator: Adobe Illustrator 21.1.0, SVG Export Plug-In . SVG Version: 6.00 Build 0)  -->
<svg version="1.1" xmlns="http://www.w3.org/2000/svg" xmlns:xlink="http://www.w3.org/1999/xlink" x="0px" y="0px"
	 viewBox="0 0 255.3 78.3" style="enable-background:new 0 0 255.3 78.3;" xml:space="preserve">
<style type="text/css">
	.st0{fill-rule:evenodd;clip-rule:evenodd;fill:#A8A8A8;}
	.st1{fill-rule:evenodd;clip-rule:evenodd;fill:#E84A45;}
	.st2{fill:#E84A45;stroke:#E84A45;stroke-miterlimit:2.6131;}
	.st3{fill:#6E6E6D;}
</style>
<g id="Layer_3">
</g>
<g id="Layer_4">
	<path class="st0" d="M71.8,26c-0.4-1.6-1.2-3.1-2.6-4.5c-1.8-1.8-4.3-2.6-6.8-2.7c-9.4-0.3-15.6,5.6-20.5,13.1
		c-1.1,1.8-3.4,2.5-5.4,1.7c-0.7-0.3-1.2-0.7-1.7-1.2v-5c0.4,0.5,1,0.9,1.7,1.2c2,0.8,4.2,0.1,5.4-1.7c4.9-7.5,11.1-13.4,20.5-13.1
		c2.5,0.1,5,0.9,6.8,2.7C72,19.2,72.5,22.6,71.8,26L71.8,26z M34.9,69.8c2.5,1.5,5,2.9,7.5,4.2l1.8,0.9L46,74
		c11.8-6,24.5-15.1,32.6-25.6c5.2-6.7,8.2-14.9,7.4-22.7c-0.6,6.2-3.4,12.5-7.4,17.7C70.5,53.9,57.8,63.1,46,69l-1.8,0.9L42.4,69
		c-2.5-1.3-5-2.7-7.5-4.2V69.8L34.9,69.8z M34.9,20.1c0.3-0.9,0.7-1.8,1.1-2.6L35.2,17l-0.3-0.2V20.1z M34.9,32.4
		c-0.9-1-1.3-2.4-1-3.8c0.1-0.6,0.3-1.3,0.5-1.9c0.1,0.3,0.3,0.5,0.5,0.7V32.4L34.9,32.4z M34.9,16.7v3.4c-0.2,0.4-0.3,0.9-0.4,1.3
		c-2.6-1.7-5.2-2.7-8.4-2.6c-2.5,0.1-5,0.9-6.8,2.7c-1.4,1.4-2.2,2.9-2.6,4.5c-0.7-3.4-0.2-6.7,2.6-9.5c1.8-1.8,4.3-2.6,6.8-2.7
		C29.4,13.7,32.2,14.8,34.9,16.7L34.9,16.7z M34.9,64.8c-9.4-5.7-18.6-13.2-25-21.4C5.8,38.2,3,31.9,2.4,25.7
		c-0.8,7.8,2.3,16,7.4,22.7c6.4,8.2,15.6,15.7,25,21.4V64.8z"/>
	<path class="st1" d="M25.7,3.8c5.6-0.2,11.1,1.7,15.6,5c-1.6,1.6-2.8,3.2-3.8,4.9c-3.3-2.4-7-4.1-11.7-3.9
		c-3.6,0.1-6.9,1.3-9.5,3.9c-7,6.9-3.9,16.8,1.4,23.6c6.5,8.4,16.7,16.1,26.4,21.3c9.7-5.3,19.9-12.9,26.4-21.3
		c5.3-6.9,8.4-16.8,1.4-23.6c-2.6-2.5-5.9-3.8-9.5-3.9c-9.1-0.3-17,4.1-24,14.9c-0.1,0.2-0.3,0.2-0.5,0.2c-0.2-0.1-0.3-0.3-0.2-0.5
		C39.4,17,45.5,8.8,52.2,5.9c3.3-1.5,6.9-2.2,10.5-2.1C68.2,3.9,72.9,6,76.3,9.3c8.7,8.5,7.2,21.3-0.9,31.7
		c-7.1,9.2-18.9,18.3-31.2,24.5C32,59.3,20.1,50.2,13,41C5,30.6,3.5,17.9,12.2,9.3C15.6,6,20.3,3.9,25.7,3.8z"/>
	<path class="st2" d="M114.9,22.7l-3.6-9.5h2.8l2.1,6.4l3.1-6.4h2.7l-4.6,9.5l5.2,14l9.4-23.5h2.7L124,39.1h-3l-4.9-13.4l-6.1,13.4
		H107l-9.1-25.9h2.8l7.9,23.5L114.9,22.7z"/>
	<path class="st2" d="M137.6,13.2h3v2.5h-3V13.2z M138,19.9h2.4v19.1H138V19.9z"/>
	<path class="st2" d="M155.3,20.3l0.3,2.1c-1.4-0.5-2.9-0.8-4.5-0.8c-1.1,0-2,0.2-2.7,0.6c-0.7,0.4-1.1,1-1.1,1.8c0,0,0,0.1,0,0.2
		c0,0.1,0,0.2,0,0.3c0.5,1.1,1.1,2,1.9,2.7c0.8,0.7,1.6,1.3,2.4,1.7c0.8,0.4,1.6,1,2.4,1.9c0.9,0.8,1.6,1.9,2.1,3.1v1
		c0,3-2.2,4.5-6.5,4.5c-1.9,0-3.5-0.2-5-0.7l-0.3-2.1c1.8,0.8,3.6,1.1,5.5,1.1c1.4,0,2.4-0.3,3-0.8c0.6-0.6,0.9-1.2,0.9-1.9
		c0-0.6-0.3-1.3-0.8-1.9c-0.5-0.6-1.6-1.6-3.1-2.8c-1.5-1.2-2.6-2.1-3.1-2.6c-1.3-1.6-1.9-3-1.9-4.1c0-1.2,0.6-2.2,1.8-2.8
		c1.2-0.6,2.8-1,4.6-1C152.9,19.9,154.3,20,155.3,20.3z"/>
	<path class="st2" d="M159.2,29.3c0-3.4,0.9-5.9,2.7-7.6c1.8-1.7,4-2.5,6.4-2.5c2.4,0,4.3,0.8,5.8,2.4c1.5,1.6,2.2,3.5,2.2,5.6
		c0,0.1,0,0.3,0,0.6c0,0.3,0,0.4,0,0.6h-14.6c0,3.4,0.7,5.8,2.1,7.3s3.2,2.2,5.3,2.2c1.6,0,3.6-0.4,6-1.2l-0.3,2.1
		c-1.9,0.6-3.8,0.8-5.7,0.8c-3,0-5.3-0.9-7.1-2.6C160.1,35.3,159.2,32.7,159.2,29.3z M173.8,26.9v-0.6c0-1.6-0.5-2.8-1.4-3.7
		c-0.9-0.9-2.2-1.4-3.7-1.4c-1.2,0.1-2.2,0.2-3,0.6c-0.8,0.3-1.5,0.6-1.9,1c-0.4,0.3-0.8,0.8-1.1,1.4s-0.5,1.1-0.5,1.4
		s-0.1,0.8-0.2,1.4H173.8z"/>
	<path class="st2" d="M177.9,19.9h2.5l6.6,17.3l5.8-17.3h2.4l5.2,17.3l6.6-17.3h2.8l-8.3,19.1h-2.7L194,22.4l-5.8,16.7h-2.8
		L177.9,19.9z"/>
	<path class="st2" d="M211.9,29.3c0-3.4,0.9-5.9,2.7-7.6c1.8-1.7,4-2.5,6.4-2.5c2.4,0,4.3,0.8,5.8,2.4c1.5,1.6,2.2,3.5,2.2,5.6
		c0,0.1,0,0.3,0,0.6c0,0.3,0,0.4,0,0.6h-14.6c0,3.4,0.7,5.8,2.1,7.3s3.2,2.2,5.3,2.2c1.6,0,3.6-0.4,6-1.2l-0.3,2.1
		c-1.9,0.6-3.8,0.8-5.7,0.8c-3,0-5.3-0.9-7.1-2.6C212.8,35.3,211.9,32.7,211.9,29.3z M226.6,26.9v-0.6c0-1.6-0.5-2.8-1.4-3.7
		c-0.9-0.9-2.2-1.4-3.7-1.4c-1.2,0.1-2.2,0.2-3,0.6c-0.8,0.3-1.5,0.6-1.9,1c-0.4,0.3-0.8,0.8-1.1,1.4s-0.5,1.1-0.5,1.4
		s-0.1,0.8-0.2,1.4H226.6z"/>
	<path class="st2" d="M248,19.9v-6.7h2.5v25.9H248v-3.6c-0.4,1.1-1.2,2.1-2.3,2.9c-1.1,0.9-2.7,1.3-4.7,1.3c-2.5,0-4.5-0.8-6.2-2.5
		c-1.7-1.7-2.5-3.9-2.5-6.8c0-0.1,0-0.2,0-0.3c0-0.2,0-0.3,0-0.4c0.1-1.9,0.5-3.6,1.2-5.1c0.7-1.4,1.7-2.5,2.8-3.2
		c1.1-0.7,2.3-1.3,3.5-1.6c1.2-0.3,2.4-0.5,3.7-0.5C245.4,19.3,246.8,19.5,248,19.9z M248,21.7c-1.2-0.3-2.6-0.5-4-0.5
		c-1,0-2,0.1-3,0.4c-0.9,0.2-1.9,0.6-2.8,1.2c-0.9,0.5-1.7,1.3-2.3,2.4c-0.6,1.1-0.9,2.4-1,3.9c0,0.1,0,0.2,0,0.4c0,0.2,0,0.3,0,0.4
		c0,2.2,0.6,4.1,1.7,5.7s2.7,2.4,4.5,2.4c1.8,0,3.4-0.6,4.6-1.7c1.3-1.2,2-3,2.3-5.5V21.7z"/>
	<g>
		<path class="st3" d="M160.8,63.1l-2.1-8.3h0l-2.1,8.3h-1.9l-3.4-10.4h1.9l2.4,8.5h0l2.1-8.5h1.9l2.2,8.5h0l2.3-8.5h1.8l-3.3,10.4
			H160.8z"/>
		<path class="st3" d="M175,62.4c-0.8,0.6-1.8,0.9-2.9,0.9c-0.8,0-1.6-0.1-2.2-0.4c-0.6-0.3-1.1-0.6-1.5-1.1
			c-0.4-0.5-0.7-1.1-0.9-1.7c-0.2-0.7-0.3-1.4-0.4-2.2c0-0.8,0.1-1.5,0.4-2.2s0.6-1.2,1-1.7c0.4-0.5,1-0.9,1.6-1.1
			c0.6-0.3,1.3-0.4,2-0.4c0.9,0,1.7,0.2,2.3,0.6c0.6,0.4,1.1,0.9,1.5,1.5c0.4,0.6,0.6,1.2,0.8,1.9c0.1,0.7,0.2,1.4,0.2,2h-7.8
			c0,0.5,0,0.9,0.2,1.3c0.1,0.4,0.3,0.8,0.6,1.1c0.3,0.3,0.6,0.6,1,0.8c0.4,0.2,0.9,0.3,1.5,0.3c0.7,0,1.3-0.2,1.8-0.5
			c0.5-0.3,0.8-0.8,0.9-1.5h1.7C176.3,60.9,175.7,61.8,175,62.4z M174.6,55.7c-0.2-0.4-0.4-0.7-0.6-0.9c-0.3-0.3-0.6-0.5-0.9-0.6
			c-0.4-0.2-0.8-0.2-1.2-0.2c-0.4,0-0.8,0.1-1.2,0.2c-0.4,0.2-0.7,0.4-0.9,0.6c-0.3,0.3-0.5,0.6-0.6,0.9c-0.1,0.4-0.2,0.7-0.3,1.1h6
			C174.8,56.5,174.7,56.1,174.6,55.7z"/>
		<path class="st3" d="M186,63.1v-1.4h0c-0.3,0.6-0.7,1-1.3,1.3c-0.6,0.3-1.3,0.4-2,0.4c-0.8,0-1.5-0.1-2.1-0.4
			c-0.6-0.3-1.1-0.7-1.5-1.2c-0.4-0.5-0.7-1.1-0.9-1.7c-0.2-0.7-0.3-1.4-0.3-2.1c0-0.7,0.1-1.4,0.3-2.1c0.2-0.7,0.5-1.2,0.9-1.7
			c0.4-0.5,0.9-0.9,1.5-1.2c0.6-0.3,1.3-0.4,2.1-0.4c0.3,0,0.6,0,0.9,0.1c0.3,0.1,0.6,0.1,0.9,0.3c0.3,0.1,0.6,0.3,0.9,0.5
			s0.5,0.5,0.7,0.8h0v-5.4h1.7v14.4H186z M179.9,59.4c0.1,0.5,0.3,0.9,0.6,1.2c0.3,0.4,0.6,0.7,1,0.9c0.4,0.2,0.9,0.3,1.4,0.3
			c0.6,0,1.1-0.1,1.5-0.3c0.4-0.2,0.7-0.5,1-0.9c0.3-0.4,0.4-0.8,0.6-1.3c0.1-0.5,0.2-0.9,0.2-1.4c0-0.5-0.1-1-0.2-1.5
			c-0.1-0.5-0.3-0.9-0.6-1.3s-0.6-0.7-1-0.9c-0.4-0.2-0.9-0.3-1.5-0.3c-0.6,0-1.1,0.1-1.5,0.3c-0.4,0.2-0.7,0.5-1,0.9
			c-0.2,0.4-0.4,0.8-0.5,1.3c-0.1,0.5-0.2,1-0.2,1.5C179.7,58.4,179.7,58.9,179.9,59.4z"/>
		<path class="st3" d="M196.1,50.8v-2.1h1.7v2.1H196.1z M197.8,52.6v10.4h-1.7V52.6H197.8z"/>
		<path class="st3" d="M204.9,52.6v1.5h-2.1v6.5c0,0.2,0,0.4,0.1,0.5c0,0.1,0.1,0.2,0.2,0.3c0.1,0.1,0.2,0.1,0.4,0.1
			c0.2,0,0.4,0,0.7,0h0.8v1.5h-1.3c-0.4,0-0.8,0-1.1-0.1c-0.3-0.1-0.6-0.2-0.8-0.3s-0.3-0.4-0.4-0.7c-0.1-0.3-0.1-0.7-0.1-1.2v-6.6
			h-1.8v-1.5h1.8v-3.1h1.7v3.1H204.9z"/>
		<path class="st3" d="M221,63.1l-2.1-8.3h0l-2.1,8.3h-1.9l-3.4-10.4h1.9l2.4,8.5h0l2.1-8.5h1.9l2.2,8.5h0l2.3-8.5h1.8l-3.3,10.4
			H221z"/>
		<path class="st3" d="M227.8,50.8v-2.1h1.7v2.1H227.8z M229.6,52.6v10.4h-1.7V52.6H229.6z"/>
		<path class="st3" d="M233.5,60.7c0.2,0.3,0.4,0.5,0.6,0.6c0.3,0.2,0.6,0.3,0.9,0.3s0.7,0.1,1,0.1c0.3,0,0.6,0,0.8-0.1
			c0.3,0,0.6-0.1,0.8-0.2c0.2-0.1,0.5-0.3,0.6-0.5c0.2-0.2,0.2-0.5,0.2-0.8c0-0.4-0.2-0.8-0.5-1c-0.3-0.2-0.8-0.4-1.3-0.6
			c-0.5-0.1-1.1-0.3-1.6-0.4c-0.6-0.1-1.1-0.3-1.6-0.5c-0.5-0.2-0.9-0.5-1.3-0.9c-0.3-0.4-0.5-0.9-0.5-1.6c0-0.5,0.1-1,0.4-1.4
			c0.2-0.4,0.5-0.7,0.9-0.9c0.4-0.2,0.8-0.4,1.3-0.5c0.5-0.1,0.9-0.2,1.4-0.2c0.6,0,1.1,0.1,1.6,0.2c0.5,0.1,0.9,0.3,1.3,0.5
			c0.4,0.2,0.7,0.6,0.9,1s0.4,1,0.4,1.6h-1.7c0-0.3-0.1-0.6-0.3-0.8c-0.1-0.2-0.3-0.4-0.6-0.5c-0.2-0.1-0.5-0.2-0.8-0.3
			c-0.3-0.1-0.6-0.1-0.8-0.1c-0.3,0-0.5,0-0.8,0.1c-0.3,0-0.5,0.1-0.7,0.2c-0.2,0.1-0.4,0.2-0.5,0.4c-0.1,0.2-0.2,0.4-0.2,0.7
			c0,0.3,0.1,0.5,0.3,0.7c0.2,0.2,0.5,0.4,0.8,0.5c0.3,0.1,0.7,0.2,1.1,0.3c0.4,0.1,0.8,0.2,1.2,0.3c0.4,0.1,0.9,0.2,1.3,0.3
			c0.4,0.1,0.8,0.3,1.1,0.5c0.3,0.2,0.6,0.5,0.8,0.8c0.2,0.3,0.3,0.8,0.3,1.3c0,0.6-0.1,1.2-0.4,1.6c-0.3,0.4-0.6,0.8-1,1
			c-0.4,0.3-0.9,0.4-1.4,0.5c-0.5,0.1-1.1,0.2-1.6,0.2c-0.6,0-1.1-0.1-1.7-0.2c-0.5-0.1-1-0.3-1.4-0.6c-0.4-0.3-0.7-0.6-1-1.1
			c-0.2-0.5-0.4-1-0.4-1.6h1.7C233.3,60.2,233.4,60.5,233.5,60.7z"/>
		<path class="st3" d="M249.7,62.4c-0.8,0.6-1.8,0.9-2.9,0.9c-0.8,0-1.6-0.1-2.2-0.4c-0.6-0.3-1.1-0.6-1.5-1.1
			c-0.4-0.5-0.7-1.1-0.9-1.7c-0.2-0.7-0.3-1.4-0.4-2.2c0-0.8,0.1-1.5,0.4-2.2c0.2-0.7,0.6-1.2,1-1.7c0.4-0.5,1-0.9,1.6-1.1
			c0.6-0.3,1.3-0.4,2-0.4c0.9,0,1.7,0.2,2.3,0.6c0.6,0.4,1.1,0.9,1.5,1.5s0.6,1.2,0.8,1.9c0.1,0.7,0.2,1.4,0.2,2h-7.8
			c0,0.5,0,0.9,0.2,1.3c0.1,0.4,0.3,0.8,0.6,1.1c0.3,0.3,0.6,0.6,1,0.8s0.9,0.3,1.5,0.3c0.7,0,1.3-0.2,1.8-0.5
			c0.5-0.3,0.8-0.8,0.9-1.5h1.7C251,60.9,250.5,61.8,249.7,62.4z M249.3,55.7c-0.2-0.4-0.4-0.7-0.6-0.9s-0.6-0.5-0.9-0.6
			c-0.4-0.2-0.7-0.2-1.2-0.2c-0.4,0-0.8,0.1-1.2,0.2c-0.4,0.2-0.7,0.4-0.9,0.6c-0.3,0.3-0.5,0.6-0.6,0.9c-0.1,0.4-0.2,0.7-0.3,1.1h6
			C249.5,56.5,249.4,56.1,249.3,55.7z"/>
	</g>
</g>
</svg>
