<?xml version="1.0" encoding="utf-8"?>
<!-- Generator: Adobe Illustrator 21.1.0, SVG Export Plug-In . SVG Version: 6.00 Build 0)  -->
<svg version="1.1" id="Layer_1" xmlns="http://www.w3.org/2000/svg" xmlns:xlink="http://www.w3.org/1999/xlink" x="0px" y="0px"
	 viewBox="0 0 46.4 46.6" style="enable-background:new 0 0 46.4 46.6;" xml:space="preserve">
<style type="text/css">
	.st0{fill:#FFFFFF;}
</style>
<g>
	<path class="st0" d="M40.4,10.2L8.1,42.4l0,0l-4.1-4.1l0,0L36.3,6.1c0.4-0.4,0.4-1,0-1.4s-1-0.4-1.4,0L2.5,37.1
		c-0.1,0.1-0.2,0.3-0.3,0.4l-2,7.5c-0.1,0.3,0,0.7,0.3,1c0.2,0.2,0.4,0.3,0.7,0.3c0.1,0,0.2,0,0.3,0l7.5-2c0.2,0,0.3-0.1,0.4-0.3
		l32.5-32.5c0.4-0.4,0.4-1,0-1.4S40.8,9.8,40.4,10.2z"/>
	<path class="st0" d="M44.7,1.8c-1.9-1.9-5-1.9-6.9,0c0,0-0.8,0.8-0.8,0.8l6.9,6.9c0,0,0.8-0.8,0.8-0.8C46.6,6.7,46.6,3.7,44.7,1.8z
		"/>
</g>
</svg>
